<svg xmlns="http://www.w3.org/2000/svg" xmlns:xlink="http://www.w3.org/1999/xlink" width="78" height="78" viewBox="0 0 78 78">
  <defs>
    <style>
      .cls-1 {
        fill: #ee274a;
      }

      .cls-2 {
        fill: #fff;
      }

      .cls-3 {
        clip-path: url(#clip-path);
      }

      .cls-4, .cls-5 {
        stroke: none;
      }

      .cls-5 {
        fill: #ee274a;
      }
    </style>
    <clipPath id="clip-path">
      <rect id="Rectangle_23" data-name="Rectangle 23" class="cls-1" width="27.004" height="28.257"/>
    </clipPath>
  </defs>
  <g id="Arrow_-_next" data-name="Arrow - next" transform="translate(0 78) rotate(-90)">
    <g id="Path_95" data-name="Path 95" class="cls-2">
      <path class="cls-4" d="M 39 76.5 C 33.9368782043457 76.5 29.0259895324707 75.50871276855469 24.40376663208008 73.55368041992188 C 19.93847846984863 71.66502380371094 15.92792224884033 68.96092224121094 12.48349952697754 65.51650238037109 C 9.039077758789062 62.07207870483398 6.334977626800537 58.0615234375 4.446322441101074 53.59623336791992 C 2.491288900375366 48.9740104675293 1.5 44.0631217956543 1.5 39 C 1.5 33.9368782043457 2.491288900375366 29.0259895324707 4.446322441101074 24.40376663208008 C 6.334977626800537 19.93847846984863 9.039077758789062 15.92792224884033 12.48349952697754 12.48349952697754 C 15.92792224884033 9.039077758789062 19.93847846984863 6.334977626800537 24.40376663208008 4.446322441101074 C 29.0259895324707 2.491288900375366 33.9368782043457 1.5 39 1.5 C 44.0631217956543 1.5 48.9740104675293 2.491288900375366 53.59623336791992 4.446322441101074 C 58.0615234375 6.334977626800537 62.07207870483398 9.039077758789062 65.51650238037109 12.48349952697754 C 68.96092224121094 15.92792224884033 71.66502380371094 19.93847846984863 73.55368041992188 24.40376663208008 C 75.50871276855469 29.0259895324707 76.5 33.9368782043457 76.5 39 C 76.5 44.0631217956543 75.50871276855469 48.9740104675293 73.55368041992188 53.59623336791992 C 71.66502380371094 58.0615234375 68.96092224121094 62.07207870483398 65.51650238037109 65.51650238037109 C 62.07207870483398 68.96092224121094 58.0615234375 71.66502380371094 53.59623336791992 73.55368041992188 C 48.9740104675293 75.50871276855469 44.0631217956543 76.5 39 76.5 Z"/>
      <path class="cls-5" d="M 39 3 C 34.13871383666992 3 29.42442321777344 3.951416015625 24.98809814453125 5.827827453613281 C 20.70159912109375 7.640861511230469 16.85129928588867 10.23701477050781 13.54415893554688 13.54415893554688 C 10.23701477050781 16.85129928588867 7.640861511230469 20.70159912109375 5.827827453613281 24.98809814453125 C 3.951416015625 29.42442321777344 3 34.13871383666992 3 39 C 3 43.86128616333008 3.951416015625 48.57557678222656 5.827827453613281 53.01190185546875 C 7.640861511230469 57.29840087890625 10.23701477050781 61.14870071411133 13.54415893554688 64.45584106445312 C 16.85129928588867 67.76298522949219 20.70159912109375 70.35913848876953 24.98809814453125 72.17217254638672 C 29.42442321777344 74.048583984375 34.13871383666992 75 39 75 C 43.86128616333008 75 48.57557678222656 74.048583984375 53.01190185546875 72.17217254638672 C 57.29840087890625 70.35913848876953 61.14870071411133 67.76298522949219 64.45584106445312 64.45584106445312 C 67.76298522949219 61.14870071411133 70.35913848876953 57.29840087890625 72.17217254638672 53.01190185546875 C 74.048583984375 48.57557678222656 75 43.86128616333008 75 39 C 75 34.13871383666992 74.048583984375 29.42442321777344 72.17217254638672 24.98809814453125 C 70.35913848876953 20.70159912109375 67.76298522949219 16.85129928588867 64.45584106445312 13.54415893554688 C 61.14870071411133 10.23701477050781 57.29840087890625 7.640861511230469 53.01190185546875 5.827827453613281 C 48.57557678222656 3.951416015625 43.86128616333008 3 39 3 M 39 0 C 60.53910064697266 0 78 17.46089935302734 78 39 C 78 60.53910064697266 60.53910064697266 78 39 78 C 17.46089935302734 78 0 60.53910064697266 0 39 C 0 17.46089935302734 17.46089935302734 0 39 0 Z"/>
    </g>
    <g id="Group_40" data-name="Group 40" transform="translate(25.498 24.872)">
      <g id="Group_39" data-name="Group 39" class="cls-3" transform="translate(0 0)">
        <path id="Path_93" data-name="Path 93" class="cls-1" d="M20.343,10.416c-3.758-.85-9.525-2.281-11.892-2.952C9.167,5.677,10.595,1.472,11.087,0A189.124,189.124,0,0,0,27,10.416c0,.716-.089,2.595-.089,3.709,0,1.074.089,3,.089,3.713-3.221,1.879-12.25,7.556-15.918,10.416-.492-1.428-1.92-5.677-2.636-7.418,2.367-.671,8.134-2.147,11.892-3V17.48c-1.968.134-5.991.313-9.167.313-3.441,0-8.492.134-11.176.224.089-.805.089-2.818.089-3.892,0-1.025,0-3.038-.089-3.888,2.684.134,7.735.224,11.176.224,3.176,0,7.2.224,9.167.358Z" transform="translate(0 0.001)"/>
      </g>
    </g>
  </g>
</svg>
