<svg xmlns="http://www.w3.org/2000/svg" xmlns:xlink="http://www.w3.org/1999/xlink" width="28.257" height="27.004" viewBox="0 0 28.257 27.004">
  <defs>
    <style>
      .cls-1 {
        fill: #ee274a;
      }

      .cls-2 {
        clip-path: url(#clip-path);
      }
    </style>
    <clipPath id="clip-path">
      <rect id="Rectangle_23" data-name="Rectangle 23" class="cls-1" width="27.004" height="28.257"/>
    </clipPath>
  </defs>
  <g id="Group_43" data-name="Group 43" transform="translate(28.257) rotate(90)">
    <g id="Group_39" data-name="Group 39" class="cls-2" transform="translate(0 0)">
      <path id="Path_93" data-name="Path 93" class="cls-1" d="M20.343,10.416c-3.758-.85-9.525-2.281-11.892-2.952C9.167,5.677,10.595,1.472,11.087,0A189.124,189.124,0,0,0,27,10.416c0,.716-.089,2.595-.089,3.709,0,1.074.089,3,.089,3.713-3.221,1.879-12.25,7.556-15.918,10.416-.492-1.428-1.92-5.677-2.636-7.418,2.367-.671,8.134-2.147,11.892-3V17.48c-1.968.134-5.991.313-9.167.313-3.441,0-8.492.134-11.176.224.089-.805.089-2.818.089-3.892,0-1.025,0-3.038-.089-3.888,2.684.134,7.735.224,11.176.224,3.176,0,7.2.224,9.167.358Z" transform="translate(0 0.001)"/>
    </g>
  </g>
</svg>
