<svg xmlns="http://www.w3.org/2000/svg" xmlns:xlink="http://www.w3.org/1999/xlink" width="78" height="78" viewBox="0 0 78 78">
  <defs>
    <style>
      .cls-1 {
        fill: #ee274a;
      }

      .cls-2, .cls-5 {
        fill: none;
      }

      .cls-2 {
        stroke: #ee274a;
        stroke-width: 3px;
      }

      .cls-3 {
        clip-path: url(#clip-path);
      }

      .cls-4 {
        stroke: none;
      }
    </style>
    <clipPath id="clip-path">
      <rect id="Rectangle_23" data-name="Rectangle 23" class="cls-1" width="27.004" height="28.257"/>
    </clipPath>
  </defs>
  <g id="Arrow_-_next" data-name="Arrow - next" transform="translate(78 78) rotate(180)">
    <g id="Ellipse_6" data-name="Ellipse 6" class="cls-2">
      <circle class="cls-4" cx="39" cy="39" r="39"/>
      <circle class="cls-5" cx="39" cy="39" r="37.5"/>
    </g>
    <g id="Group_40" data-name="Group 40" transform="translate(25.498 24.872)">
      <g id="Group_39" data-name="Group 39" class="cls-3" transform="translate(0 0)">
        <path id="Path_93" data-name="Path 93" class="cls-1" d="M20.343,10.416c-3.758-.85-9.525-2.281-11.892-2.952C9.167,5.677,10.595,1.472,11.087,0A189.124,189.124,0,0,0,27,10.416c0,.716-.089,2.595-.089,3.709,0,1.074.089,3,.089,3.713-3.221,1.879-12.25,7.556-15.918,10.416-.492-1.428-1.92-5.677-2.636-7.418,2.367-.671,8.134-2.147,11.892-3V17.48c-1.968.134-5.991.313-9.167.313-3.441,0-8.492.134-11.176.224.089-.805.089-2.818.089-3.892,0-1.025,0-3.038-.089-3.888,2.684.134,7.735.224,11.176.224,3.176,0,7.2.224,9.167.358Z" transform="translate(0 0.001)"/>
      </g>
    </g>
  </g>
</svg>
