<?xml version="1.0" encoding="UTF-8"?>
<svg id="Laag_1" xmlns="http://www.w3.org/2000/svg" xmlns:xlink="http://www.w3.org/1999/xlink" version="1.1" viewBox="0 0 738 479.6">
  <!-- Generator: Adobe Illustrator 29.3.1, SVG Export Plug-In . SVG Version: 2.1.0 Build 151)  -->
  <defs>
    <style>
      .st0 {
        fill: none;
      }

      .st1 {
        isolation: isolate;
      }

      .st2 {
        fill: #0c0c0c;
      }

      .st3 {
        clip-path: url(#clippath);
      }

      .st4 {
        fill: #ee274a;
      }
    </style>
    <clipPath id="clippath">
      <rect class="st0" width="738" height="479.6"/>
    </clipPath>
  </defs>
  <g id="Group_42">
    <g class="st3">
      <g id="Group_20">
        <path id="Path_69" class="st2" d="M47,423.2c0-51.3.4-113.1.4-198.1s-.8-12.2-5.3-12.2-7.7,4.9-7.7,19.5c0,122.4,0,155.4.8,190.8H2.7V85.4h31.7v103h2.4c4.1-24,11.4-33.8,22.8-33.8s18.7,7.7,18.7,36.2v144.4c0,34.2,0,60.6.4,87.9h-31.7Z"/>
        <path id="Path_70" class="st2" d="M121.8,426c-31.7,0-38.6-24.8-38.6-142.4s8.9-129.8,38.6-129.8,38.2,17.9,38.2,129.8-6.9,142.4-38.2,142.4M121.8,202.3c-4.9,0-6.5,6.1-6.5,82.6-.4,78.5,1.6,85.8,6.5,85.8s6.5-7.3,6.5-85.8-1.6-82.6-6.5-82.6"/>
        <path id="Path_71" class="st2" d="M201.3,426c-31.7,0-38.6-24.8-38.6-142.4s8.9-129.8,38.6-129.8,38.2,17.9,38.2,129.8-6.9,142.4-38.2,142.4M201.3,202.3c-4.9,0-6.5,6.1-6.5,82.6-.4,78.5,1.6,85.8,6.5,85.8s6.5-7.3,6.5-85.8-1.6-82.6-6.5-82.6"/>
        <path id="Path_72" class="st2" d="M278.1,190.1c1.2-18.7,6.1-35.4,19.9-35.4s23.6,18.3,23.6,135-12.2,136.3-26.4,136.3-13.8-7.7-17.5-34.2l-2.4.4c.4,12.6.8,23.6.8,37.8v39.4h-32.1c.4-40.3.8-91.9.8-160.2s0-111-.4-152.5h31.7c0,9-.4,16.7-.4,26.9v6.5h2.4ZM276.1,365.4c1.2.5,2.4.7,3.7.8,7.7,0,10.2-7.7,10.2-81.8s-2-71.2-6.5-71.2-7.3,7.7-7.3,30.9v121.2Z"/>
        <path id="Path_73" class="st2" d="M402.8,156.8c-4.1,40.3-6.9,105-25.2,128.9,19.1,21.2,18.7,73.6,25.2,137.5h-25.6c-4.5,0-5.7-2.4-6.5-9.8-2.8-38.6-8.1-89.1-11.8-107.8h-1.6c0,46.8,0,81.8.8,117.6h-32.1c.8-48.8.4-115.5.4-179.8s0-64-.4-103.5h32.1c-.8,44.3-.8,62.4-.8,129.9v5.3h1.6c2-18.3,4.5-30.5,6.1-51.7,2.4-24.4,4.5-49.6,4.9-66.7h33Z"/>
        <path id="Path_74" class="st2" d="M426.9,209.2c3.3-39.9,11-53.3,22-53.3,1.8,0,3.6.3,5.3.8-.8,29.3-2,54.5-2,87-1.2-.8-4.5-1.2-6.1-1.2-6.1,0-9.4,4.1-9.4,18.3,0,46,.4,100.5,3.3,162.3h-35c.4-37,.4-78.1.4-136.3s0-92.7-.4-130.2h20.7c-.4,17.5-.8,33.4-.8,52.5h2Z"/>
        <path id="Path_75" class="st2" d="M526,336.5c0,32.1.4,78.1,2.8,86.6h-25.2c-5.7,0-6.9-2.4-6.9-7.7s.8-17.9,1.2-27.3h-2.4c-1.6,26.4-9.4,36.6-19.9,36.6s-21.6-9.4-21.6-85,9.4-76.1,29.3-76.1c4.4,0,8.8,1.1,12.6,3.3v-41.5c0-13.8,0-22-5.3-22s-6.9,9-5.7,47.2c-3.7-.8-8.9-.4-14.2-.4s-11.8,0-15.5.4c-2.8-71.6,4.5-96.8,36.6-96.8s34.2,13.8,34.2,48.4v134.2ZM495.5,296.7c-.9-.4-1.9-.5-2.8-.4-6.9,0-9.4,3.7-9.4,36.6s1.2,39.9,5.3,39.9,6.9-7.3,6.9-53.7v-22.4Z"/>
        <path id="Path_76" class="st2" d="M585.3,301.2c6.1,0,10.2,0,15-.4.4,11.4.4,22,.4,32.9,0,67.5-9.4,92.3-34.6,92.3s-35.8-24-35.8-139.9,8.5-132.2,37.8-132.2,32.9,15.9,32.9,88.7-.4,22.4-.8,35.4h-27.3c.8-19.9.4-35,.4-45.6,0-24.8-2-29.7-5.7-29.7-5.3,0-7.7,5.3-7.3,82.6,0,80.5,2,84.6,7.3,84.6s6.1-8.5,6.1-31.3-.4-24.8-.8-37.4h12.2Z"/>
        <path id="Path_77" class="st2" d="M650.3,423.2c0-51.3.4-113.1.4-198.1s-.8-12.2-5.3-12.2-7.7,4.9-7.7,19.5c0,122.4,0,155.4.8,190.8h-32.5V140h31.7v48.5h2.4c4.1-24,11.4-33.8,22.8-33.8s18.7,7.7,18.7,36.2v144.4c0,34.2,0,60.6.4,87.9h-31.7Z"/>
        <path id="Path_78" class="st2" d="M720.1,246.7c-.4,23.6-.4,47.2-.4,68.3s2,13.8,8.1,13.8c2.9,0,5.7-.8,8.1-2.4,0,17.5.8,78.1,2,95.2-5.3,2-10.6,4.1-17.5,4.1-23.2,0-30.1-17.1-30.1-55.7s.4-67.1.8-124.9h-5.7c0-30.1,0-58.2-.4-88.3h5.7v-16.8h32.1c-1.1,5.7-1.6,11.4-1.6,17.2l15.5-.4c-1.2,32.1-1.2,59.4-1.2,90.7l-15.5-.8Z"/>
        <g id="Da_s_gewoon_JES." class="st1">
          <g class="st1">
            <path class="st2" d="M9,443.4c6.4,0,9.3,2.3,9.3,12.9s-2.6,13.4-9.4,13.4H2c.1-3.6.1-7.5.1-13.1s0-10-.1-13.2h7ZM13.5,456.3c0-7.7-1.3-8.6-4.4-8.6s-1.5,0-2.1,0c0,2.5,0,5.9,0,8.9s0,6.7,0,8.6c.7,0,1.3,0,2.1,0,3.3,0,4.5-1,4.5-8.9Z"/>
          </g>
          <g class="st1">
            <path class="st2" d="M29.5,466.7c-.6,2.1-2.1,3.1-4.4,3.1s-4.6-1.3-4.6-6.1,2.1-6.3,6.4-6.3,2,0,2.7.2c0-1.2,0-2.4,0-3.5s-.6-2.4-2-2.4-2.3.8-2.2,4c-.6,0-1.3,0-2,0-.9,0-1.9,0-2.5.1-.4-4.9,1.5-8.2,6.5-8.2s6.7,2.5,6.7,6.4-.1,5.9-.1,9,.1,5.7.4,6.6h-3.8c-.8,0-1-.1-1-1.1s0-1.2,0-1.8h-.2ZM29.5,462.2v-2.2c-.6-.1-1.3-.1-2.1-.1-1.7,0-2.5.6-2.5,3.2s.5,3.2,1.9,3.2,2.7-1.5,2.7-4.1Z"/>
          </g>
          <g class="st1">
            <path class="st2" d="M39.4,443.4c.6,0,1.5,0,2.2,0-.6,2.7-2,9.2-2.3,11-.9-.1-2.3-.4-3.2-.5.4-2.3,1.1-8.2,1.2-10.5.6,0,1.3,0,2.1,0Z"/>
            <path class="st2" d="M51.9,464c0-1.4-.8-2.7-3.4-3.5-4.3-1.5-5.7-3.9-5.7-7.3s2.3-5.6,6.8-5.6,6.5,1.9,6.5,5.8,0,1,0,1.5c-.6,0-1.4,0-2.2,0s-1.5,0-2,0c0-.3,0-.7,0-1.2,0-1.7-.6-2.4-2.3-2.4s-2.3.6-2.3,2,.5,2.6,3.4,3.6c3.9,1.4,5.7,3.6,5.7,7.2s-2,5.9-6.7,5.9-6.8-2.2-6.8-6.1,0-1.2,0-1.5c.5,0,1.3,0,2.2,0s1.5,0,2.1,0c0,.5,0,.8,0,1.2,0,1.8.6,2.6,2.6,2.6s2.2-.7,2.2-2.1Z"/>
            <path class="st2" d="M76.6,451.7c1.7.6,2.4,1.8,2.4,4.4,0,3.9-2.1,5.8-7,5.8s-1.3,0-1.9-.1c-.3.6-.4,1.2-.4,1.7s.4.9,1.2.9c2,0,3.6-.2,4.9-.2,3.3,0,4.7,1.5,4.7,4.7s-1.9,5.5-8.3,5.5-7.6-1.5-7.6-3.4,1.1-2.8,2.8-3.5h0c-1.4-.5-1.9-1.4-1.9-2.5,0-1.6,1.3-2.8,2.7-3.7-2.1-.9-3-2.9-3-6,0-5.1,2.3-7.4,6.8-7.4s5.1,0,8.3,0c0,.6,0,3,0,3.8-.9,0-2.3-.1-3.7-.2v.2ZM69.3,467.8c-.4.5-.6,1-.6,1.5,0,1.2.8,1.8,3.5,1.8,3,0,4.1-.6,4.1-2.1s-.4-1.5-1.5-1.5-3.6.2-5,.2h-.4ZM69.3,455.3c0,2.4.8,3.4,2.8,3.4s2.9-1,2.9-3.4-.8-3.9-2.9-3.9-2.8,1.5-2.8,3.9Z"/>
            <path class="st2" d="M89.3,470c-4.6,0-7.2-2.7-7.2-11s2.8-11.4,7.3-11.4,6.4,2.9,6.4,8.2,0,3.7-.1,4.6c-1.3,0-3.3,0-5.3,0s-3,0-4,0c.1,5,1,6.1,3,6.1s2.3-1,2.3-3.7c.6,0,1.3,0,2.1,0s1.5,0,2,0c0,5-1.3,7.3-6.5,7.3ZM86.4,457.5c1.7,0,3.6,0,5.2,0,0-.5,0-1.1,0-2,0-3.3-.7-4.4-2.5-4.4s-2.6,1.1-2.8,6.3Z"/>
          </g>
          <g class="st1">
            <path class="st2" d="M119.4,447.9c-.9,5.3-2.9,18.6-3.5,21.7-.6,0-1.5,0-2.5,0s-2.5,0-3,0c-.3-1.9-.9-7.3-1.5-12-.2-1.8-.4-3.6-.5-5h0c-.1,1.5-.4,3.3-.6,5-.6,4.7-1.3,9.9-1.6,11.9-.7,0-1.8,0-2.8,0s-2,0-2.5,0c-.6-3.3-2.5-17-3.5-21.7h4.8c.1,1.6.8,7.8,1.3,12.4.2,2,.4,3.6.5,4.9h.1l.6-5c.6-4.4,1.4-10.5,1.5-12.4.7,0,2,0,2.7,0s1.9,0,2.6,0c.1,1.8.9,7.9,1.5,12.5.2,2,.4,3.6.5,4.9h.1c.1-1.3.2-2.9.5-4.9.5-4.5,1.2-10.4,1.4-12.5h3.9Z"/>
          </g>
          <g class="st1">
            <path class="st2" d="M128,470c-4.9,0-7.5-3.7-7.5-11.6s2.8-10.9,7.5-10.9,7.6,2.9,7.6,10.9-2.7,11.6-7.6,11.6ZM128,451.7c-1.9,0-3,1.3-3,7,0,5.6,1.1,7.2,3,7.2s3-1.6,3-7.2-1.2-7-3-7Z"/>
            <path class="st2" d="M145,470c-4.9,0-7.5-3.7-7.5-11.6s2.8-10.9,7.5-10.9,7.6,2.9,7.6,10.9-2.7,11.6-7.6,11.6ZM145,451.7c-1.9,0-3,1.3-3,7,0,5.6,1.1,7.2,3,7.2s3-1.6,3-7.2-1.2-7-3-7Z"/>
            <path class="st2" d="M165,469.6c0-3.8,0-8.7,0-15.1s-.6-3-2.2-3-2.9,1.1-2.9,3.8c0,9,0,11.6,0,14.2h-4.7c0-3.1,0-5.9,0-10.7s0-8.2,0-11h4.7c0,1,0,1.7,0,2.5h.2c.9-1.9,2.6-2.8,4.8-2.8,3.2,0,4.8,1.7,4.8,6s0,5.8,0,8.2,0,5.3.1,7.8h-4.7Z"/>
            <path class="st2" d="M188.1,443.4c0,2.8,0,4.8,0,7.8s0,5.8,0,11.6-1.6,7-5.8,7-2.8-.2-4.1-.7c.2-.9.7-3.6.8-4.7.7.4,1.5.7,2.6.7s1.7-.7,1.7-2.1c0-9.6,0-16.9-.2-19.7h4.9Z"/>
            <path class="st2" d="M205.6,443.4c0,.5,0,1.4,0,2s0,1.8,0,2.3c-3.2,0-6.2,0-8.8,0v6.7c3,0,6,0,8.5-.1v4.1c-2.5,0-5.5,0-8.5,0v6.9c2.5,0,5.7,0,8.8,0,0,.5,0,1.6,0,2.3s0,1.6,0,2.1h-13.6c.1-3.4.1-7.5.1-13.1s0-10-.1-13.1h13.6Z"/>
            <path class="st2" d="M213.1,462.1c0,3,.7,3.9,3.2,3.9s3-.9,3-2.7-.8-3.7-3.9-4.9c-5.2-2.1-6.9-4.6-6.9-8.8s2.5-6.6,7.6-6.6,7.6,2.3,7.6,6.9,0,1.4,0,2.2c-.5,0-1.3,0-2.1,0s-1.7,0-2.2,0c0-.7,0-1.3,0-2,0-2.1-.7-3-3.1-3s-2.9.9-2.9,2.6.5,3.3,3.9,4.7c4.5,1.8,6.7,4.4,6.7,8.7s-2.3,7-7.5,7-7.9-2.7-7.9-7.1,0-1.5,0-2.2c.5,0,1.3.1,2.2.1s1.9,0,2.5,0v1.3Z"/>
            <path class="st2" d="M230.4,466.7c0,2-.9,3.1-2.6,3.1s-2.6-1.1-2.6-3.1.9-3.1,2.6-3.1,2.6,1,2.6,3.1Z"/>
          </g>
        </g>
        <path id="Path_79" class="st4" d="M203.7,35.1c0-.1.8-13.9,8.6-13.9s5,1.9,5,6.1c0,16.5-13.7,15-13.7,7.8M209.9,120.9c.4,5.3.7,9.9.7,12.9,0,5.8-2.9,9.6-7.7,7.2-10.4-5-60.6-11.1-68.5-2.5,1,2.6,20,5.1,40.3,4,1.5,0,2.6-.1,3.6-.1,6.8,0,4.6,6.8.9,7.2-8.1.9-16.2,1.4-24.3,1.5-26.8,0-30.5-5.4-30.5-11.2,0-22.3,55.2-17.2,74.9-11.2-2.8-16.8-2.8-34.6-1.6-51.6-16.8,27.8-15.6,29.4-20.5,29.4-2,0-3.9-1.3-4.4-3.3-4.7-14.4-8.3-29.2-10.6-44.2-9.7,31.9-11.5,46.4-19.3,46.4-1.7.4-3.6.9-19.6-29.1.2,30.6,2,46.6,2,46.6,0,3.1-3.9,5.2-5.7,3.4-5-5.1-7.4-52.9-7.1-72.5,0-2.8,3.2-6.4,6.5-6.4s1.5.4,24.3,39.7c9.3-27,12.8-58.3,23.3-58.3s1.4,20.6,12.7,58.5c6.8-12.3,14.6-24,21.6-36.2,1.4-2.1,3.7-3.4,6.2-3.5,9.9,0-1.6,9.5,2.8,73.3M159.9,13.9C159.9,13.8,160.7,0,168.5,0s5,1.9,5,6.1c0,16.5-13.7,15-13.7,7.8M110.5,37.8c-2.4-4.1-1.3-16.8,6.3-16.8s7.3,10.4,3.8,15.8c-2.4,3.8-8,4.7-10.2,1"/>
        <path id="Path_80" class="st2" d="M229.3,89.3h9.6c0,8.5,0,12.7,0,19.5s.2,14.1.2,27.6-1.5,11.8-8.7,11.8c-1.2,0-2.4-.1-3.5-.5,0-2.2.2-13.6.2-16.3.4.2.9.3,1.4.3.8,0,1.3-.6,1.3-2.3,0-15.9,0-33.8-.4-40.2M234.1,86.8c-4.8,0-5.8-2.3-5.8-4.5s1.2-4.3,5.8-4.3,5.5,1.8,5.5,4.3-.9,4.5-5.5,4.5"/>
        <path id="Path_81" class="st2" d="M253.6,103.7c0-2.8-.3-4.3-1.7-4.3s-2.2,1.7-1.8,8.2c-1.4-.1-2.7-.1-4.1,0-1.5,0-3,0-4.5.2-.5-13.9,2.1-19.1,10.8-19.1s10.5,3.4,10.5,11.2,0,15.6,0,23.6.2,14.1.7,15.8h-7.5c-1.8,0-2.1-.5-2.1-2.2s.2-3.1.2-4.7h-.5c-.6,5.2-2.8,7.2-6.2,7.2s-6.4-2-6.4-15.2,3-14.4,9.4-14.4c1.1,0,2.2.1,3.3.5v-6.8ZM253.6,116.3c-.4,0-.8,0-1.2,0-1.9,0-2.7.8-2.7,6.1s.5,6.7,1.8,6.7,2.1-1.6,2.1-9.7v-3.1Z"/>
        <path id="Path_82" class="st2" d="M277.7,103.7c0-2.8-.3-4.3-1.7-4.3s-2.2,1.7-1.8,8.2c-1.4-.1-2.7-.1-4.1,0-1.5,0-3,0-4.5.2-.5-13.9,2.1-19.1,10.8-19.1s10.5,3.4,10.5,11.2,0,15.6,0,23.6.2,14.1.7,15.8h-7.5c-1.8,0-2.1-.5-2.1-2.2s.2-3.1.2-4.7h-.5c-.6,5.2-2.8,7.2-6.2,7.2s-6.4-2-6.4-15.2,3-14.4,9.4-14.4c1.1,0,2.2.1,3.3.5v-6.8ZM277.6,116.3c-.4,0-.8,0-1.2,0-1.9,0-2.7.8-2.7,6.1s.5,6.7,1.8,6.7,2.1-1.6,2.1-9.7v-3.1Z"/>
        <path id="Path_83" class="st2" d="M297.1,99.4c1-7.8,3.2-10.4,6-10.4.6,0,1.1.1,1.7.2-.2,6.2-.5,11.8-.5,18.8-.6-.2-1.3-.4-1.9-.4-1.8,0-2.6,1.1-2.6,4.6,0,7.8,0,17.1.5,27.1h-10.5c.2-7,.2-14.7.2-25.6s0-17.4-.2-24.4h7.1c0,3.3-.2,6.4-.2,10h.4Z"/>
        <path id="Path_84" class="st2" d="M72.4,86c0,7.7-.3,15.3-.3,26.6v6c.7,0,1.5,0,2.2,0v10.7h-2c.1,3.5.2,6.7.3,9.9h-10.4v-10.1c.1,0,0,0,0,0-2.9,0-6.9,0-10.2.1.4-6.5,1.4-38.1,1.4-43.3h8.5c-.3,5.5-1.1,24.4-1.3,32.7h3.6c0-8.1,0-26.1,0-32.7h8.4Z"/>
        <path id="Path_85" class="st2" d="M86.1,139.9c-8,0-10.6-6.2-10.6-28.5s3.2-26,10.7-26,10.7,4.5,10.7,26-2.7,28.5-10.8,28.5M84.2,111.3c0,12.6.6,14.1,2.1,14.1s2.1-1.4,2.1-14.1-.6-13.3-2.1-13.3-2.1,1.1-2.1,13.3"/>
      </g>
    </g>
  </g>
</svg>