<svg xmlns="http://www.w3.org/2000/svg" xmlns:xlink="http://www.w3.org/1999/xlink" width="738" height="479.582" viewBox="0 0 738 479.582">
  <defs>
    <style>
      .cls-1, .cls-3 {
        fill: #0c0c0c;
      }

      .cls-2 {
        clip-path: url(#clip-path);
      }

      .cls-3 {
        font-size: 35px;
        font-family: Obviously-NarwSemi, Obviously;
      }

      .cls-4 {
        letter-spacing: -0.003em;
      }

      .cls-5 {
        letter-spacing: -0.011em;
      }

      .cls-6 {
        fill: #ee274a;
      }
    </style>
    <clipPath id="clip-path">
      <rect id="Rectangle_17" data-name="Rectangle 17" class="cls-1" width="738" height="479.582"/>
    </clipPath>
  </defs>
  <g id="Group_42" data-name="Group 42" transform="translate(0 -0.001)">
    <g id="Group_20" data-name="Group 20" class="cls-2" transform="translate(0 0.001)">
      <path id="Path_69" data-name="Path 69" class="cls-1" d="M48.521,471.738c0-51.251.407-113.082.407-198.091,0-8.541-.815-12.2-5.29-12.2-5.287,0-7.726,4.879-7.726,19.524,0,122.43,0,155.381.81,190.769H4.182V134h31.73V237.035h2.44c4.068-23.993,11.387-33.759,22.778-33.759s18.71,7.726,18.71,36.2v144.4c0,34.163,0,60.606.407,87.856Z" transform="translate(-1.515 -48.555)"/>
      <path id="Path_70" data-name="Path 70" class="cls-1" d="M169,513.491c-31.726,0-38.641-24.814-38.641-142.364,0-111.857,8.947-129.759,38.641-129.759,29.286,0,38.235,17.9,38.235,129.759,0,117.55-6.915,142.364-38.235,142.364m0-223.713c-4.879,0-6.508,6.1-6.508,82.566-.407,78.5,1.629,85.824,6.508,85.824s6.508-7.322,6.508-85.824c0-76.469-1.625-82.566-6.508-82.566" transform="translate(-47.237 -87.461)"/>
      <path id="Path_71" data-name="Path 71" class="cls-1" d="M293.775,513.491c-31.726,0-38.641-24.814-38.641-142.364,0-111.857,8.947-129.759,38.641-129.759,29.286,0,38.235,17.9,38.235,129.759,0,117.55-6.915,142.364-38.235,142.364m0-223.713c-4.879,0-6.508,6.1-6.508,82.566-.407,78.5,1.629,85.824,6.508,85.824s6.508-7.322,6.508-85.824c0-76.469-1.625-82.566-6.508-82.566" transform="translate(-92.449 -87.461)"/>
      <path id="Path_72" data-name="Path 72" class="cls-1" d="M416.75,278.033c1.221-18.71,6.1-35.388,19.932-35.388,17.488,0,23.589,18.306,23.589,135.042,0,117.147-12.2,136.267-26.436,136.267-9.355,0-13.831-7.726-17.492-34.163l-2.44.4c.407,12.613.811,23.59.811,37.824v39.4H382.58c.407-40.274.814-91.866.814-160.2,0-65.081,0-111.049-.407-152.54h31.726c0,8.951-.4,16.684-.4,26.853v6.5Zm-2.036,175.316a11.789,11.789,0,0,0,3.661.814c7.73,0,10.169-7.726,10.169-81.759,0-65.9-2.032-71.185-6.508-71.185-4.88,0-7.323,7.733-7.323,30.918Z" transform="translate(-138.629 -87.924)"/>
      <path id="Path_73" data-name="Path 73" class="cls-1" d="M587.934,236.255c-4.068,40.274-6.915,104.951-25.218,128.944,19.117,21.153,18.711,73.622,25.218,137.485H562.309c-4.476,0-5.7-2.436-6.508-9.759-2.847-38.645-8.137-89.088-11.8-107.8h-1.625c0,46.782,0,81.765.814,117.557H511.055c.814-48.807.407-115.517.407-179.791,0-47.993,0-64.04-.407-103.492h32.136c-.814,44.332-.814,62.417-.814,129.935v5.29H544c2.035-18.306,4.476-30.508,6.1-51.662,2.443-24.4,4.475-49.622,4.882-66.71Z" transform="translate(-185.182 -79.501)"/>
      <path id="Path_74" data-name="Path 74" class="cls-1" d="M656.969,297.849c3.254-39.863,10.98-53.283,21.964-53.283a18.163,18.163,0,0,1,5.286.807c-.811,29.29-2.032,54.509-2.032,87.049-1.222-.814-4.476-1.218-6.1-1.218-6.1,0-9.355,4.065-9.355,18.3,0,45.967.4,100.475,3.254,162.3H635c.407-37.016.407-78.1.407-136.267,0-55.316,0-92.743-.407-130.163h20.746c-.407,17.492-.814,33.355-.814,52.476Z" transform="translate(-230.094 -88.62)"/>
      <path id="Path_75" data-name="Path 75" class="cls-1" d="M784.056,424.006c0,32.137.407,78.1,2.846,86.638H761.684c-5.693,0-6.915-2.436-6.915-7.733,0-6.912.815-17.889,1.222-27.251h-2.44c-1.629,26.443-9.358,36.612-19.932,36.612-13.424,0-21.56-9.361-21.56-85.01,0-63.459,9.355-76.071,29.286-76.071a25.258,25.258,0,0,1,12.609,3.257V312.964c0-13.837,0-21.967-5.286-21.967-6.1,0-6.916,8.951-5.694,47.179-3.661-.808-8.947-.4-14.237-.4-6.508,0-11.8,0-15.457.4-2.846-71.583,4.472-96.808,36.609-96.808,25.626,0,34.166,13.831,34.166,48.41Zm-30.505-39.863a6.085,6.085,0,0,0-2.85-.4c-6.915,0-9.355,3.654-9.355,36.605,0,36.606,1.222,39.863,5.29,39.863,5.287,0,6.915-7.322,6.915-53.694Z" transform="translate(-258.017 -87.461)"/>
      <path id="Path_76" data-name="Path 76" class="cls-1" d="M886.769,388.619c6.1,0,10.169,0,15.049-.4.407,11.387.407,21.961.407,32.944,0,67.518-9.355,92.333-34.573,92.333-26.847,0-35.795-24-35.795-139.922,0-109.824,8.541-132.2,37.828-132.2,24.407,0,32.948,15.863,32.948,88.678,0,10.573-.407,22.371-.814,35.388H874.567c.814-19.935.407-34.984.407-45.557,0-24.814-2.036-29.693-5.7-29.693-5.287,0-7.726,5.29-7.319,82.566,0,80.547,2.032,84.613,7.319,84.613,4.476,0,6.1-8.541,6.1-31.323,0-10.984-.407-24.808-.814-37.42Z" transform="translate(-301.426 -87.461)"/>
      <path id="Path_77" data-name="Path 77" class="cls-1" d="M994.656,502.73c0-51.251.4-113.082.4-198.091,0-8.541-.811-12.2-5.286-12.2-5.287,0-7.73,4.879-7.73,19.524,0,122.43,0,155.381.814,190.769h-32.54v-283.2h31.726v48.5h2.443c4.065-23.993,11.387-33.759,22.778-33.759s18.71,7.726,18.71,36.2v144.4c0,34.163,0,60.606.407,87.856Z" transform="translate(-344.35 -79.546)"/>
      <path id="Path_78" data-name="Path 78" class="cls-1" d="M1109.435,326.2c-.407,23.6-.407,47.186-.407,68.339,0,10.573,2.033,13.824,8.134,13.824a14.655,14.655,0,0,0,8.137-2.436c0,17.492.811,78.1,2.032,95.179-5.287,2.039-10.577,4.065-17.488,4.065-23.186,0-30.1-17.081-30.1-55.719,0-26.443.407-67.121.811-124.879h-5.694c0-30.1,0-58.163-.407-88.267h5.7V219.525h32.134a90.745,90.745,0,0,0-1.629,17.185l15.457-.41c-1.219,32.137-1.219,59.387-1.219,90.71Z" transform="translate(-389.33 -79.546)"/>
      <text id="Da_s_gewoon_JES." data-name="Da’s gewoon JES." class="cls-3" transform="translate(0 469.616)"><tspan x="0" y="0">D</tspan><tspan class="cls-4" y="0">a</tspan><tspan y="0">’s ge</tspan><tspan class="cls-5" y="0">w</tspan><tspan y="0">oon JES.</tspan></text>
      <path id="Path_79" data-name="Path 79" class="cls-6" d="M265.845,35.086c0-.138.781-13.946,8.648-13.946,2.5,0,5.025,1.886,5.025,6.1,0,16.5-13.674,15.016-13.674,7.845m6.227,85.78c.361,5.291.674,9.861.674,12.9,0,5.768-2.9,9.577-7.742,7.228-10.426-5.046-60.626-11.071-68.455-2.526,1,2.6,19.981,5.1,40.342,3.96,1.453-.079,2.619-.143,3.552-.143,6.787,0,4.63,6.836.883,7.223a231.189,231.189,0,0,1-24.335,1.483c-26.81,0-30.505-5.364-30.505-11.159,0-22.33,55.195-17.215,74.881-11.247-2.818-16.823-2.815-34.579-1.578-51.591-16.754,27.762-15.573,29.433-20.52,29.433a4.524,4.524,0,0,1-4.411-3.293A275.635,275.635,0,0,1,224.3,58.938C214.61,90.82,212.84,105.37,205.022,105.37c-1.725.431-3.589.858-19.559-29.1.247,30.61,2.042,46.62,2.042,46.62,0,3.138-3.908,5.191-5.717,3.353-5.006-5.078-7.391-52.86-7.1-72.518.041-2.8,3.184-6.4,6.464-6.4,4.443,0,1.519.441,24.3,39.739,9.324-27,12.8-58.272,23.309-58.272,8.635,0,1.376,20.563,12.716,58.519,6.845-12.322,14.57-24.029,21.6-36.2a7.8,7.8,0,0,1,6.22-3.538c9.891,0-1.593,9.508,2.778,73.3M222.017,13.944c0-.138.78-13.943,8.653-13.943,2.5,0,5.021,1.886,5.021,6.1,0,16.5-13.674,15.01-13.674,7.84m-49.4,23.884C170.21,33.773,171.278,21,178.923,21c5.352,0,7.327,10.4,3.845,15.821-2.432,3.791-7.97,4.7-10.155,1.008" transform="translate(-62.133 -0.001)"/>
      <path id="Path_80" data-name="Path 80" class="cls-1" d="M358.115,133.6h9.609c-.077,8.456-.077,12.683-.077,19.525,0,5.764.154,14.066.154,27.6,0,7.533-1.537,11.838-8.687,11.838a11.963,11.963,0,0,1-3.536-.462c.077-2.152.231-13.606.231-16.3a4.487,4.487,0,0,0,1.383.307c.846,0,1.307-.615,1.307-2.306,0-15.912-.077-33.823-.385-40.2m4.843-2.46c-4.843,0-5.766-2.306-5.766-4.535,0-2.537,1.153-4.3,5.766-4.3,4.382,0,5.535,1.768,5.535,4.3,0,2.229-.922,4.535-5.535,4.535" transform="translate(-128.845 -44.316)"/>
      <path id="Path_81" data-name="Path 81" class="cls-1" d="M390.563,154.123c0-2.767-.307-4.3-1.691-4.3-1.538,0-2.152,1.691-1.845,8.225a33.891,33.891,0,0,0-4.074-.077,37.8,37.8,0,0,0-4.536.153c-.538-13.913,2.076-19.064,10.838-19.064,7.533,0,10.454,3.383,10.454,11.223,0,9.455-.077,15.6-.077,23.6,0,5.919.154,14.144.692,15.835h-7.533c-1.768,0-2.076-.461-2.076-2.229,0-1.23.154-3.075.231-4.69h-.462c-.615,5.227-2.844,7.226-6.226,7.226-4.075,0-6.38-2-6.38-15.221,0-11.607,3-14.374,9.379-14.374a10.373,10.373,0,0,1,3.3.462Zm-.077,12.606a5.84,5.84,0,0,0-1.153-.077c-1.922,0-2.69.768-2.69,6.149,0,6,.461,6.688,1.768,6.688,1.46,0,2.075-1.615,2.075-9.686Z" transform="translate(-136.926 -50.388)"/>
      <path id="Path_82" data-name="Path 82" class="cls-1" d="M428.3,154.123c0-2.767-.307-4.3-1.691-4.3-1.538,0-2.152,1.691-1.845,8.225a33.89,33.89,0,0,0-4.074-.077,37.8,37.8,0,0,0-4.536.153c-.538-13.913,2.076-19.064,10.838-19.064,7.533,0,10.454,3.383,10.454,11.223,0,9.455-.076,15.6-.076,23.6,0,5.919.154,14.144.692,15.835h-7.533c-1.768,0-2.076-.461-2.076-2.229,0-1.23.154-3.075.231-4.69h-.462c-.615,5.227-2.844,7.226-6.226,7.226-4.075,0-6.38-2-6.38-15.221,0-11.607,3-14.374,9.378-14.374a10.373,10.373,0,0,1,3.3.462Zm-.077,12.606a5.84,5.84,0,0,0-1.153-.077c-1.922,0-2.69.768-2.69,6.149,0,6,.461,6.688,1.768,6.688,1.46,0,2.075-1.615,2.075-9.686Z" transform="translate(-150.599 -50.388)"/>
      <path id="Path_83" data-name="Path 83" class="cls-1" d="M461.854,149.916c1-7.763,3.152-10.377,6-10.377a9.964,9.964,0,0,1,1.691.231c-.23,6.226-.461,11.76-.461,18.756a5.35,5.35,0,0,0-1.922-.384c-1.845,0-2.614,1.076-2.614,4.612,0,7.841.077,17.065.538,27.135H454.552c.153-7,.153-14.682.153-25.6,0-10.378-.077-17.45-.153-24.445h7.071c-.077,3.306-.154,6.381-.154,9.993Z" transform="translate(-164.708 -50.563)"/>
      <path id="Path_84" data-name="Path 84" class="cls-1" d="M101.99,134.906c-.071,7.668-.284,15.337-.284,26.628v6.035a21.436,21.436,0,0,0,2.2-.071V178.22h-1.988c.142,3.478.212,6.745.284,9.94H91.835l.142-10.082h-.212c-2.911,0-6.888.071-10.225.142.355-6.462,1.42-38.131,1.42-43.314H91.41c-.284,5.467-1.136,24.426-1.349,32.662l3.55.071c0-8.166,0-26.13-.071-32.734Z" transform="translate(-29.546 -48.884)"/>
      <path id="Path_85" data-name="Path 85" class="cls-1" d="M129.089,188.436c-8.024,0-10.579-6.248-10.579-28.545,0-21.514,3.195-25.988,10.651-25.988,7.385,0,10.722,4.474,10.722,25.988,0,22.3-2.7,28.545-10.793,28.545M127.1,159.82c0,12.639.568,14.059,2.06,14.059s2.059-1.419,2.059-14.059c0-12.141-.639-13.278-2.059-13.278-1.491,0-2.06,1.136-2.06,13.278" transform="translate(-42.942 -48.521)"/>
    </g>
  </g>
</svg>
