<svg id="Group_19" data-name="Group 19" xmlns="http://www.w3.org/2000/svg" xmlns:xlink="http://www.w3.org/1999/xlink" width="175.293" height="176.344" viewBox="0 0 175.293 176.344">
  <defs>
    <style>
      .cls-1 {
        fill: #ee274a;
      }

      .cls-2 {
        clip-path: url(#clip-path);
      }
    </style>
    <clipPath id="clip-path">
      <rect id="Rectangle_16" data-name="Rectangle 16" class="cls-1" width="175.293" height="176.344"/>
    </clipPath>
  </defs>
  <g id="Group_18" data-name="Group 18" class="cls-2">
    <path id="Path_11" data-name="Path 11" class="cls-1" d="M240.5,99.875c0-.079.444-7.928,4.916-7.928,1.422,0,2.857,1.072,2.857,3.468,0,9.378-7.773,8.536-7.773,4.459m3.539,48.762c.205,3.008.383,5.605.383,7.333,0,3.279-1.646,5.444-4.4,4.108-5.927-2.869-34.463-6.293-38.913-1.436.568,1.48,11.358,2.9,22.932,2.252.826-.045,1.489-.081,2.019-.081,3.858,0,2.632,3.886.5,4.106a131.4,131.4,0,0,1-13.833.842c-15.24,0-17.34-3.049-17.34-6.343,0-12.693,31.375-9.785,42.566-6.393a124.821,124.821,0,0,1-.9-29.327c-9.524,15.781-8.852,16.731-11.664,16.731a2.572,2.572,0,0,1-2.507-1.872,156.665,156.665,0,0,1-6-25.122c-5.507,18.123-6.513,26.394-10.957,26.394-.981.245-2.04.488-11.119-16.544.14,17.4,1.161,26.5,1.161,26.5,0,1.784-2.221,2.951-3.25,1.906-2.845-2.887-4.2-30.049-4.038-41.222a4.129,4.129,0,0,1,3.675-3.64c2.526,0,.864.251,13.815,22.589,5.3-15.35,7.278-33.124,13.25-33.124,4.908,0,.782,11.689,7.228,33.265,3.891-7,8.282-13.659,12.277-20.576a4.434,4.434,0,0,1,3.535-2.012c5.623,0-.905,5.4,1.579,41.666M215.585,87.857c0-.079.444-7.926,4.919-7.926,1.421,0,2.854,1.072,2.854,3.47,0,9.379-7.773,8.533-7.773,4.457M187.5,101.434c-1.366-2.305-.759-9.566,3.587-9.566,3.043,0,4.165,5.911,2.186,8.993-1.383,2.155-4.531,2.672-5.773.573" transform="translate(-133.724 -57.204)"/>
    <path id="Path_12" data-name="Path 12" class="cls-1" d="M250.323,433.594c.592,0,1.144,0,1.657-.04-.039,1.065-.039,2.209-.039,3.275,0,1.46,0,2.6.039,3.748l-1.539-.039c.039,1.933.119,3.709.158,5.444h-9.035c.039-1.578.078-3.63.119-5.523h-.158c-2.485,0-5.76.039-8.64.118.315-3.866,1.065-21.187,1.065-24.186h7.417c-.158,3.156-.75,12.271-.907,17.2.75,0,1.618.039,2.762.039,0-4.735-.039-13.73-.119-17.242h7.378c-.118,4.261-.158,8.483-.158,14.756Z" transform="translate(-166.667 -297.997)"/>
    <path id="Path_13" data-name="Path 13" class="cls-1" d="M312.851,445.386c-7.023,0-9.469-4.064-9.469-15.861,0-11.56,3-14.519,9.469-14.519,6.431,0,9.548,2.959,9.548,14.519,0,11.8-2.564,15.861-9.548,15.861m-1.815-15.939c0,6.115.553,7.062,1.815,7.062s1.815-.986,1.815-7.062c0-5.76-.552-6.589-1.815-6.589s-1.815.789-1.815,6.589" transform="translate(-217.12 -297.005)"/>
    <path id="Path_14" data-name="Path 14" class="cls-1" d="M159.075,48.042c-.853-1.658-1.912-3.709-3.366-6.475-.273-.519-.53-.664-.891-.474-.393.207-.519.654-.022,1.6,1.959,3.724,2.521,4.793,3.164,5.939l-3.1,1.628c-.794-1.548-1.572-3.025-2.786-5.335-1.472-2.8-2.637-5.013-3.612-6.827l3.112-1.636c.4.794.688,1.384,1.068,2.106.24.456.447.888.68,1.368l.118-.042a2.382,2.382,0,0,1,1.31-2.7c1.21-.637,2.294-.444,3.154,1.19,1.157,2.2,1.745,3.355,2.489,4.769.661,1.257,1.19,2.263,1.759,3.268Z" transform="translate(-106.251 -26.092)"/>
    <path id="Path_15" data-name="Path 15" class="cls-1" d="M194.147,37.327c-2.817,1.084-4.449.057-6.12-4.284-1.639-4.258-.8-5.74,1.865-6.767s4.349-.514,5.988,3.744c1.671,4.341,1.1,6.216-1.733,7.307m-3.179-8.307c-.5.191-.618.618.237,2.839.874,2.27,1.282,2.588,1.779,2.4.514-.2.586-.7-.288-2.971-.854-2.22-1.231-2.456-1.728-2.264" transform="translate(-133.964 -18.481)"/>
    <path id="Path_16" data-name="Path 16" class="cls-1" d="M225.014,27.65c-2.922.753-4.425-.455-5.585-4.96-1.138-4.418-.136-5.795,2.632-6.508s4.379-.009,5.517,4.409c1.16,4.5.376,6.3-2.564,7.058m-2.2-8.618c-.516.133-.685.543-.092,2.847.607,2.355.975,2.719,1.491,2.586.533-.137.663-.629.057-2.984-.593-2.3-.94-2.581-1.456-2.448" transform="translate(-156.708 -11.409)"/>
    <path id="Path_17" data-name="Path 17" class="cls-1" d="M254.325,11.178a2.324,2.324,0,0,1,1.924-1.928c1.707-.232,2.683,1.015,3.289,5.466.611,4.487-.19,5.975-1.809,6.2a2.041,2.041,0,0,1-2.4-1.339l-.05.025c.079.455.142.913.214,1.44.1.739.192,1.407.307,2.127l-3.484.474c-.233-1.976-.563-4.4-.961-7.324-.352-2.586-.6-4.416-.856-6.156l3.467-.472c.048.352.073.671.124,1.04l.059.44ZM255,17.86a1.593,1.593,0,0,0,.613.024c.633-.086.83-.615.514-2.937-.285-2.094-.564-2.432-1.022-2.37-.493.067-.747.568-.586,1.746Z" transform="translate(-179.27 -6.601)"/>
    <path id="Path_18" data-name="Path 18" class="cls-1" d="M293.816,2.162C293.408,4,293.073,6.9,291.67,7.815c1.6.8,1.714,3.253,2.4,5.832l-3.125.06c-.373.007-.5-.115-.6-.486a25.372,25.372,0,0,0-1.234-4.167h-.053c.034,1.793.062,3.213.125,4.686l-3.515.068c-.006-2.131-.076-4.9-.129-7.634-.043-2.2-.064-4.243-.135-6.106L288.927,0c-.015,1.989.042,4.03.1,6.977l0,.2h.053c.2-.643.4-1.286.567-1.911a25.541,25.541,0,0,0,.723-3.033Z" transform="translate(-204.259 -0.001)"/>
    <path id="Path_19" data-name="Path 19" class="cls-1" d="M319.851,10.645c.462-1.8,1.25-2.388,2.17-2.307a3.377,3.377,0,0,1,.616.1c-.2,1.659-.38,3.2-.508,5.055a2.037,2.037,0,0,0-.648-.151c-.673-.046-.947.309-1.021,1.389-.1,1.523-.208,3.278-.242,5.073l-3.72-.255c.145-1.592.266-3.345.436-5.825.164-2.391.276-4.021.351-5.636l2.693.185c-.09.795-.158,1.52-.252,2.368Z" transform="translate(-226.507 -5.785)"/>
    <path id="Path_20" data-name="Path 20" class="cls-1" d="M341.66,15.2c.108-.648.008-1.024-.465-1.1s-.811.225-.939,1.536c-.345-.093-.834-.175-1.342-.259-.613-.1-1.212-.183-1.568-.206.425-3.313,1.641-4.461,4.531-3.981,2.557.425,3.506,1.644,3.131,3.9-.314,1.892-.558,3.147-.829,4.776a20.643,20.643,0,0,0-.375,3.447l-2.644-.439c-.578-.1-.689-.187-.573-.887.044-.263.117-.593.189-.922l-.07-.012a2.085,2.085,0,0,1-2.541,1.432c-1.418-.236-2.093-.941-1.651-3.6.412-2.487,1.574-3.086,3.921-2.7a4.8,4.8,0,0,1,1.019.259Zm-.451,2.607a2.187,2.187,0,0,0-.467-.113c-.63-.1-.91.065-1.068,1.011-.177,1.068-.054,1.3.4,1.38.508.084.808-.316,1.079-1.945Z" transform="translate(-240.735 -7.929)"/>
    <path id="Path_21" data-name="Path 21" class="cls-1" d="M372.471,22.2c.3-1.06.23-1.411-.231-1.54-.513-.144-.826.119-1.537,2.648-.7,2.5-.618,2.925-.054,3.083.461.129.767-.3,1-1.139.081-.291.16-.637.252-.962.383.144.823.286,1.353.435.581.163,1.1.273,1.639.4-.089.381-.185.723-.276,1.048-.883,3.145-2.233,3.947-4.951,3.184-2.854-.8-3.482-2.379-2.191-6.977,1.228-4.376,2.656-5.193,5.425-4.415,2.684.753,3.5,1.849,2.647,4.892-.1.359-.228.748-.37,1.188-.371-.123-.931-.3-1.563-.476-.565-.158-1.133-.3-1.429-.365Z" transform="translate(-262.533 -12.671)"/>
    <path id="Path_22" data-name="Path 22" class="cls-1" d="M396.034,32.042c.721-1.719,1.611-3.849,2.793-6.742.221-.543.168-.833-.21-.987-.411-.168-.835.024-1.237,1.01-1.592,3.9-2.048,5.013-2.513,6.243l-3.238-1.323c.675-1.6,1.306-3.149,2.294-5.565,1.2-2.926,2.142-5.243,2.9-7.156l3.255,1.33c-.352.815-.617,1.417-.926,2.173-.2.477-.393.914-.611,1.4l.108.063a2.383,2.383,0,0,1,2.907-.73c1.266.517,1.815,1.471,1.117,3.18-.94,2.3-1.447,3.494-2.051,4.973-.537,1.315-.967,2.367-1.371,3.449Z" transform="translate(-280.275 -12.539)"/>
    <path id="Path_23" data-name="Path 23" class="cls-1" d="M429.081,35.5l.827-1.551c.462.266.932.517,1.448.793.5.268,1,.535,1.513.786-.282.453-.582.978-.9,1.533.658.351,1.293.67,1.85.946-.691,1.221-1.373,2.387-2.026,3.648-.368-.216-1.049-.6-1.8-1.04-.35.618-.692,1.261-1.043,1.919-.242.454-.123.72.332.962a3.758,3.758,0,0,0,1.267.454c-.486.949-1.462,3.044-1.887,4.1a6.508,6.508,0,0,1-2.1-.738c-2.366-1.262-2.421-2.78-1.318-4.848.476-.893,1.151-2.082,1.893-3.437l-.54-.308c.626-1.175,1.327-2.452,1.881-3.565Z" transform="translate(-303.836 -24.295)"/>
    <path id="Path_24" data-name="Path 24" class="cls-1" d="M469.5,76.359c-1.444,1.935-2.85,2.3-4.3,1.221s-1.5-2.535-.053-4.471,2.808-2.247,4.259-1.164,1.53,2.493.1,4.414" transform="translate(-332.128 -51.049)"/>
    <path id="Path_25" data-name="Path 25" class="cls-1" d="M481.707,91.086c1.314-1.323,2.938-2.963,5.119-5.2.409-.42.468-.709.175-.994-.318-.31-.782-.291-1.526.472-2.937,3.013-3.779,3.878-4.671,4.844l-2.5-2.441c1.227-1.234,2.392-2.429,4.214-4.3,2.206-2.263,3.953-4.056,5.378-5.544l2.518,2.454c-.633.623-1.1,1.081-1.674,1.666-.359.369-.706.7-1.091,1.069l.076.1a2.383,2.383,0,0,1,2.969.414c.979.954,1.131,2.045-.158,3.367-1.735,1.78-2.652,2.7-3.768,3.84-.991,1.017-1.785,1.831-2.564,2.682Z" transform="translate(-342.302 -55.767)"/>
    <path id="Path_26" data-name="Path 26" class="cls-1" d="M505.924,122.268c-1.9-2.343-1.432-4.213,2.178-7.146,3.542-2.878,5.211-2.541,7.014-.322s1.835,3.977-1.706,6.854c-3.611,2.934-5.571,2.971-7.486.614m6.915-5.6c-.336-.413-.78-.4-2.626,1.1-1.888,1.534-2.064,2.021-1.729,2.434s.849.34,2.737-1.194c1.846-1.5,1.954-1.931,1.618-2.345" transform="translate(-361.285 -80.906)"/>
    <path id="Path_27" data-name="Path 27" class="cls-1" d="M524.2,148.5c-1.624-2.544-.943-4.348,2.977-6.852,3.846-2.456,5.466-1.931,7,.478s1.371,4.16-2.474,6.615c-3.921,2.5-5.873,2.318-7.507-.241m7.507-4.773c-.287-.449-.729-.482-2.734.8-2.05,1.309-2.281,1.773-1.994,2.222.3.464.8.434,2.854-.875,2.006-1.281,2.161-1.7,1.875-2.145" transform="translate(-374.561 -100.225)"/>
    <path id="Path_28" data-name="Path 28" class="cls-1" d="M541.26,169.6a2.323,2.323,0,0,1,2.432,1.226c.753,1.549-.127,2.866-4.167,4.829-4.072,1.98-5.736,1.683-6.45.214a2.041,2.041,0,0,1,.522-2.7l-.039-.04c-.408.218-.822.42-1.3.653-.67.326-1.277.621-1.924.955l-1.537-3.162c1.8-.837,4.007-1.909,6.658-3.2,2.347-1.141,4.008-1.948,5.581-2.733l1.529,3.146c-.319.155-.615.279-.95.442l-.4.194Zm-6.138,2.727a1.607,1.607,0,0,0,.168.589c.279.575.843.6,2.951-.428,1.9-.924,2.135-1.294,1.933-1.71-.217-.447-.772-.533-1.842-.013Z" transform="translate(-378.439 -118.545)"/>
    <path id="Path_29" data-name="Path 29" class="cls-1" d="M562.383,203.619c-1.873.185-4.733.772-6.04-.276-.266,1.767-2.556,2.643-4.791,4.1l-1.032-2.95c-.123-.352-.047-.51.276-.717a25.386,25.386,0,0,0,3.573-2.473l-.017-.05c-1.693.592-3.034,1.061-4.413,1.581l-1.161-3.318c2.023-.67,4.631-1.6,7.212-2.5,2.078-.727,4.012-1.385,5.76-2.034l1.161,3.318c-1.895.606-3.816,1.3-6.6,2.271l-.184.065.018.05c.674-.01,1.347-.02,1.993-.058a25.567,25.567,0,0,0,3.107-.259Z" transform="translate(-392.741 -139.54)"/>
    <path id="Path_30" data-name="Path 30" class="cls-1" d="M567.916,233.2c1.856-.108,2.655.464,2.858,1.365a3.406,3.406,0,0,1,.1.616c-1.642.311-3.159.61-4.97,1.054a2.039,2.039,0,0,0-.053-.663c-.161-.655-.582-.808-1.634-.55-1.483.364-3.186.8-4.907,1.313l-.888-3.621c1.56-.346,3.268-.765,5.682-1.357,2.328-.571,3.914-.96,5.475-1.379l.643,2.621c-.785.156-1.5.312-2.332.481Z" transform="translate(-399.64 -164.588)"/>
    <path id="Path_31" data-name="Path 31" class="cls-1" d="M571.684,258.177c.649-.1.977-.308.9-.782s-.464-.7-1.75-.419c-.018-.356-.092-.848-.168-1.357-.092-.614-.2-1.209-.288-1.554,3.282-.619,4.75.183,5.185,3.08.386,2.563-.481,3.842-2.746,4.183-1.9.285-3.165.44-4.8.686a20.613,20.613,0,0,0-3.395.708l-.4-2.651c-.088-.579-.035-.713.666-.819.263-.04.6-.072.936-.1l-.011-.07a2.085,2.085,0,0,1-2.146-1.975c-.214-1.422.25-2.282,2.918-2.683,2.493-.375,3.421.545,3.775,2.9a4.786,4.786,0,0,1,.068,1.049Zm-2.619.376a2.188,2.188,0,0,0-.036-.479c-.095-.632-.343-.846-1.291-.7-1.071.161-1.258.351-1.189.807.077.509.55.671,2.183.426Z" transform="translate(-403.371 -181.685)"/>
    <path id="Path_32" data-name="Path 32" class="cls-1" d="M574.828,289.773c1.1-.043,1.413-.216,1.394-.695-.021-.532-.367-.75-2.993-.645-2.59.1-2.973.313-2.949.9.018.479.522.637,1.391.6.3-.012.656-.044.994-.057-.02.409-.019.872,0,1.421.024.6.081,1.134.12,1.684-.39.033-.745.047-1.081.061-3.265.129-4.443-.908-4.555-3.729-.118-2.963,1.19-4.045,5.962-4.234,4.542-.18,5.759.927,5.872,3.8.11,2.785-.68,3.9-3.839,4.026-.372.015-.782.013-1.244.013,0-.391,0-.977-.029-1.634-.023-.585-.064-1.17-.094-1.471Z" transform="translate(-405.886 -204.008)"/>
    <path id="Path_33" data-name="Path 33" class="cls-1" d="M566.533,319.93c1.859.146,4.16.322,7.278.536.585.04.843-.1.871-.51.031-.443-.284-.785-1.347-.858-4.2-.289-5.4-.371-6.715-.426l.24-3.49c1.734.137,3.4.252,6,.43,3.153.217,5.651.388,7.707.512l-.242,3.507c-.884-.078-1.538-.141-2.353-.2-.514-.035-.991-.086-1.521-.14l-.026.123a2.382,2.382,0,0,1,1.606,2.531c-.094,1.364-.827,2.186-2.668,2.059-2.48-.17-3.772-.277-5.366-.386-1.417-.1-2.551-.175-3.7-.219Z" transform="translate(-405.277 -225.565)"/>
    <path id="Path_34" data-name="Path 34" class="cls-1" d="M574.695,350.561l1.731.3c-.109.521-.2,1.046-.3,1.624-.1.56-.2,1.119-.276,1.682-.518-.127-1.11-.248-1.737-.375-.128.735-.233,1.437-.322,2.053-1.376-.276-2.7-.561-4.1-.788.091-.417.243-1.183.428-2.034-.7-.14-1.414-.265-2.149-.393-.507-.088-.722.108-.81.616a3.743,3.743,0,0,0-.037,1.345c-1.053-.166-3.348-.44-4.489-.513a6.511,6.511,0,0,1,.046-2.227c.461-2.641,1.887-3.167,4.2-2.764,1,.174,2.338.444,3.856.728l.125-.609c1.312.229,2.743.5,3.974.676Z" transform="translate(-402.604 -249.743)"/>
    <path id="Path_35" data-name="Path 35" class="cls-1" d="M564.642,396.717c-2.289-.769-3.078-1.989-2.5-3.705s1.942-2.214,4.231-1.445c2.272.763,3.011,1.966,2.434,3.683s-1.892,2.231-4.164,1.467" transform="translate(-402.175 -279.979)"/>
    <path id="Path_36" data-name="Path 36" class="cls-1" d="M536.3,417.573c1.665.838,3.729,1.872,6.534,3.25.526.258.82.225,1-.142.2-.4.034-.834-.922-1.3-3.777-1.856-4.861-2.388-6.056-2.936L538.4,413.3c1.554.783,3.052,1.52,5.394,2.67,2.837,1.394,5.084,2.5,6.94,3.39l-1.55,3.155c-.789-.407-1.371-.713-2.1-1.073-.462-.227-.885-.454-1.355-.705l-.071.1a2.383,2.383,0,0,1,.529,2.95c-.6,1.227-1.592,1.71-3.249.9-2.231-1.1-3.386-1.684-4.821-2.389-1.274-.626-2.295-1.128-3.346-1.6Z" transform="translate(-382.714 -295.786)"/>
    <path id="Path_37" data-name="Path 37" class="cls-1" d="M523.544,447.419c1.638-2.535,3.562-2.666,7.469-.14,3.833,2.477,4.029,4.168,2.477,6.57s-3.213,2.976-7.046.5c-3.907-2.525-4.549-4.378-2.9-6.928m7.462,4.844c.289-.447.136-.864-1.863-2.156-2.043-1.32-2.56-1.338-2.85-.89-.3.462-.061.912,1.982,2.233,2,1.291,2.441,1.26,2.73.813" transform="translate(-374.075 -318.793)"/>
    <path id="Path_38" data-name="Path 38" class="cls-1" d="M505.132,472.487c1.918-2.331,3.844-2.24,7.436.716,3.524,2.9,3.525,4.6,1.709,6.809s-3.533,2.589-7.056-.311c-3.592-2.956-4.018-4.87-2.088-7.214m6.857,5.666c.338-.411.234-.843-1.6-2.354-1.878-1.546-2.391-1.622-2.729-1.211s-.164.9,1.714,2.444c1.838,1.512,2.28,1.532,2.619,1.121" transform="translate(-360.693 -336.971)"/>
    <path id="Path_39" data-name="Path 39" class="cls-1" d="M490,495.426a2.324,2.324,0,0,1-.415,2.691c-1.24,1.2-2.764.765-5.881-2.47-3.141-3.26-3.374-4.934-2.2-6.067a2.04,2.04,0,0,1,2.73-.339l.026-.05c-.333-.32-.653-.652-1.023-1.036-.517-.537-.986-1.022-1.5-1.535l2.531-2.439c1.354,1.457,3.054,3.221,5.1,5.343,1.811,1.879,3.091,3.209,4.324,4.462l-2.519,2.427c-.246-.256-.456-.5-.714-.767l-.309-.32Zm-4.491-4.993a1.589,1.589,0,0,0-.508.342c-.46.444-.307.986,1.318,2.674,1.466,1.521,1.891,1.63,2.223,1.309.358-.345.268-.9-.558-1.755Z" transform="translate(-344.127 -346.512)"/>
    <path id="Path_40" data-name="Path 40" class="cls-1" d="M459.316,524.942c-.757-1.723-2.2-4.261-1.611-5.828-1.763.3-3.306-1.61-5.386-3.283l2.484-1.9c.3-.226.471-.2.767.04a25.432,25.432,0,0,0,3.459,2.631l.042-.032c-1.088-1.425-1.949-2.555-2.872-3.7l2.8-2.133c1.264,1.715,2.959,3.906,4.618,6.08,1.336,1.75,2.56,3.384,3.719,4.845l-2.8,2.133c-1.164-1.613-2.417-3.226-4.2-5.569l-.118-.155-.043.032c.218.638.436,1.275.672,1.877a25.539,25.539,0,0,0,1.21,2.873Z" transform="translate(-323.709 -365.516)"/>
    <path id="Path_41" data-name="Path 41" class="cls-1" d="M446.042,537.989c.68,1.731.385,2.668-.408,3.141a3.387,3.387,0,0,1-.556.283c-.807-1.464-1.563-2.813-2.548-4.4a2.038,2.038,0,0,0,.614-.257c.573-.357.587-.8.014-1.724-.807-1.3-1.751-2.779-2.774-4.255l3.165-1.97c.815,1.375,1.744,2.867,3.057,4.978,1.267,2.035,2.131,3.422,3.015,4.775l-2.291,1.426c-.392-.7-.762-1.324-1.182-2.067Z" transform="translate(-315.167 -378.452)"/>
    <path id="Path_42" data-name="Path 42" class="cls-1" d="M417.6,549.031c.3.587.6.832,1.026.617s.523-.66-.148-1.794c.333-.128.777-.351,1.237-.583.555-.28,1.086-.567,1.387-.758,1.612,2.926,1.307,4.57-1.31,5.888-2.315,1.166-3.8.741-4.831-1.305-.862-1.713-1.4-2.871-2.148-4.346a20.558,20.558,0,0,0-1.731-3l2.395-1.205c.523-.264.667-.256.986.378.12.238.256.547.392.857l.063-.032a2.086,2.086,0,0,1,1.208-2.655c1.284-.647,2.245-.475,3.46,1.936,1.134,2.252.549,3.421-1.576,4.491a4.809,4.809,0,0,1-.976.392Zm-1.173-2.371a2.185,2.185,0,0,0,.444-.184c.571-.287.7-.589.266-1.446-.487-.967-.725-1.086-1.138-.878-.46.232-.467.732.276,2.207Z" transform="translate(-294.201 -387.005)"/>
    <path id="Path_43" data-name="Path 43" class="cls-1" d="M392.095,562.416c.385,1.031.646,1.275,1.1,1.107.5-.186.6-.583-.322-3.045-.906-2.429-1.225-2.727-1.775-2.522-.449.167-.442.7-.138,1.511.106.283.247.609.365.925-.395.109-.834.254-1.349.447-.566.211-1.052.431-1.562.64-.153-.36-.278-.692-.395-1.009-1.142-3.061-.525-4.5,2.121-5.491,2.778-1.036,4.215-.132,5.885,4.343,1.589,4.259.917,5.76-1.779,6.766-2.612.974-3.918.571-5.023-2.39-.131-.349-.256-.738-.4-1.177.372-.12.928-.308,1.543-.538.549-.2,1.092-.426,1.368-.548Z" transform="translate(-277.297 -396.901)"/>
    <path id="Path_44" data-name="Path 44" class="cls-1" d="M357.993,562.971c.431,1.814.969,4.058,1.72,7.092.141.569.356.772.752.674.431-.107.66-.511.4-1.545-1.012-4.084-1.3-5.256-1.652-6.523l3.4-.841c.4,1.693.8,3.313,1.429,5.847.76,3.068,1.362,5.5,1.874,7.492l-3.413.845c-.2-.866-.337-1.508-.533-2.3-.124-.5-.222-.969-.333-1.491l-.125.013a2.383,2.383,0,0,1-1.917,2.3c-1.327.328-2.333-.117-2.777-1.91-.6-2.413-.892-3.675-1.276-5.226-.341-1.379-.614-2.482-.927-3.593Z" transform="translate(-253.786 -402.08)"/>
    <path id="Path_45" data-name="Path 45" class="cls-1" d="M338.977,581.166l.246,1.74c-.53.057-1.057.132-1.637.214-.562.08-1.125.159-1.685.257-.039-.532-.106-1.133-.179-1.768-.738.1-1.439.222-2.052.326-.161-1.394-.3-2.737-.515-4.141.424-.042,1.2-.134,2.067-.221-.082-.706-.184-1.426-.289-2.165-.073-.51-.326-.653-.835-.581a3.756,3.756,0,0,0-1.291.38c-.167-1.052-.614-3.32-.9-4.428a6.518,6.518,0,0,1,2.133-.643c2.654-.376,3.594.818,3.923,3.138.142,1,.3,2.361.5,3.892l.618-.07c.187,1.318.374,2.762.583,3.988Z" transform="translate(-237.538 -407.979)"/>
    <path id="Path_46" data-name="Path 46" class="cls-1" d="M293.05,585.3c.025-2.415.942-3.541,2.753-3.523s2.7,1.164,2.68,3.578c-.024,2.4-.941,3.47-2.752,3.452s-2.705-1.111-2.68-3.507" transform="translate(-209.725 -416.36)"/>
    <path id="Path_47" data-name="Path 47" class="cls-1" d="M254.535,568.775c-.278,1.844-.618,4.127-1.055,7.221-.082.58.042.849.446.906.44.062.8-.227.952-1.282.588-4.167.757-5.362.9-6.669l3.464.489c-.261,1.721-.494,3.373-.858,5.958-.442,3.129-.792,5.609-1.061,7.651l-3.481-.491c.142-.877.251-1.525.365-2.334.072-.51.156-.982.248-1.507l-.121-.035A2.382,2.382,0,0,1,251.7,580.1c-1.354-.191-2.121-.981-1.863-2.809.347-2.461.545-3.742.769-5.325.2-1.407.357-2.532.483-3.68Z" transform="translate(-178.764 -406.704)"/>
    <path id="Path_48" data-name="Path 48" class="cls-1" d="M223.667,563.194c2.92.765,3.645,2.552,2.465,7.052-1.156,4.414-2.7,5.129-5.467,4.4s-3.83-2.123-2.674-6.537c1.179-4.5,2.739-5.688,5.676-4.918m-2.272,8.6c.515.135.863-.141,1.466-2.442.616-2.353.471-2.85-.044-2.985-.532-.14-.885.227-1.5,2.58-.6,2.3-.435,2.712.08,2.847" transform="translate(-155.679 -402.902)"/>
    <path id="Path_49" data-name="Path 49" class="cls-1" d="M192.853,553.446c2.812,1.1,3.326,2.955,1.637,7.288-1.657,4.251-3.275,4.783-5.937,3.745s-3.561-2.55-1.9-6.8c1.69-4.334,3.375-5.335,6.2-4.232m-3.247,8.281c.5.193.873-.041,1.737-2.257.884-2.266.8-2.777.3-2.97-.513-.2-.906.123-1.789,2.39-.864,2.217-.745,2.644-.249,2.838" transform="translate(-132.98 -395.786)"/>
    <path id="Path_50" data-name="Path 50" class="cls-1" d="M157.806,547.268a2.323,2.323,0,0,1-2.688.442c-1.521-.808-1.585-2.39.523-6.357,2.125-4,3.644-4.739,5.087-3.972a2.041,2.041,0,0,1,1.169,2.491l.055.009c.2-.416.418-.824.668-1.294.35-.659.666-1.254.993-1.906l3.1,1.65c-.964,1.74-2.114,3.9-3.5,6.506-1.225,2.3-2.091,3.935-2.9,5.5l-3.089-1.641c.167-.314.332-.587.508-.917l.208-.392Zm3.353-5.818a1.593,1.593,0,0,0-.483-.377c-.565-.3-1.033.014-2.133,2.084-.991,1.866-.962,2.3-.555,2.52.439.233.938-.024,1.5-1.075Z" transform="translate(-110.222 -384.084)"/>
    <path id="Path_51" data-name="Path 51" class="cls-1" d="M120.974,527.172c1.4-1.252,3.372-3.411,5.045-3.334-.825-1.585.509-3.641,1.457-6.137l2.571,1.777c.307.212.338.385.2.742a25.413,25.413,0,0,0-1.432,4.1l.044.03c1.019-1.475,1.827-2.644,2.636-3.877l2.892,2c-1.24,1.733-2.8,4.022-4.355,6.271-1.252,1.811-2.427,3.481-3.458,5.035l-2.892-2c1.174-1.606,2.32-3.3,4-5.721l.111-.161-.044-.03c-.539.4-1.077.809-1.577,1.22a25.508,25.508,0,0,0-2.359,2.039Z" transform="translate(-86.577 -370.5)"/>
    <path id="Path_52" data-name="Path 52" class="cls-1" d="M106.558,516.177c-1.436,1.182-2.418,1.19-3.113.582a3.349,3.349,0,0,1-.441-.441c1.143-1.219,2.193-2.355,3.393-3.781a2.031,2.031,0,0,0,.434.5c.516.435.946.31,1.644-.519.983-1.168,2.1-2.523,3.189-3.952l2.852,2.4c-1.057,1.2-2.189,2.544-3.79,4.445-1.544,1.833-2.6,3.082-3.61,4.341l-2.064-1.738c.542-.588,1.024-1.134,1.6-1.763Z" transform="translate(-73.716 -363.966)"/>
    <path id="Path_53" data-name="Path 53" class="cls-1" d="M89.1,493.31c-.467.462-.606.826-.27,1.166s.789.293,1.661-.7c.224.277.574.631.936,1,.438.442.875.858,1.15,1.086-2.284,2.437-3.943,2.655-6,.574-1.825-1.842-1.88-3.387-.252-5,1.363-1.349,2.3-2.224,3.469-3.386a20.519,20.519,0,0,0,2.323-2.576L94,487.382c.413.416.45.555-.055,1.054-.189.188-.441.412-.693.637l.05.05a2.086,2.086,0,0,1,2.9.328c1.013,1.022,1.146,1.99-.772,3.889-1.792,1.774-3.084,1.58-4.759-.111a4.8,4.8,0,0,1-.674-.807Zm1.892-1.849a2.161,2.161,0,0,0,.312.366c.45.454.776.481,1.458-.194.769-.762.808-1.026.484-1.354-.363-.366-.84-.218-2.013.945Z" transform="translate(-60.938 -347.439)"/>
    <path id="Path_54" data-name="Path 54" class="cls-1" d="M67.806,473.146c-.862.685-1.012,1.009-.714,1.384.332.417.74.387,2.8-1.249,2.028-1.614,2.212-2.01,1.848-2.468-.3-.375-.8-.2-1.479.337-.237.188-.5.423-.767.633-.227-.342-.5-.714-.843-1.144-.375-.472-.735-.867-1.092-1.287.295-.257.573-.478.836-.688,2.556-2.034,4.12-1.894,5.877.315,1.846,2.32,1.431,3.966-2.306,6.939-3.557,2.829-5.192,2.656-6.983.405-1.736-2.181-1.757-3.548.716-5.516.292-.232.622-.472.995-.745.229.317.58.786.989,1.3.365.459.744.906.945,1.131Z" transform="translate(-45.623 -334.377)"/>
    <path id="Path_55" data-name="Path 55" class="cls-1" d="M54.246,440.178c-1.59.974-3.556,2.183-6.206,3.84-.5.311-.623.578-.406.924.235.376.691.468,1.594-.1,3.568-2.232,4.591-2.872,5.686-3.6l1.855,2.965c-1.484.908-2.9,1.793-5.112,3.177-2.679,1.676-4.8,3-6.539,4.111l-1.865-2.98c.762-.456,1.328-.789,2.021-1.222.436-.273.852-.512,1.313-.78l-.051-.115a2.383,2.383,0,0,1-2.786-1.105c-.725-1.159-.614-2.255.951-3.234,2.108-1.318,3.216-1.991,4.57-2.838,1.2-.753,2.168-1.356,3.128-2Z" transform="translate(-30.955 -312.909)"/>
    <path id="Path_56" data-name="Path 56" class="cls-1" d="M30.092,426.79l-1.577.777c-.219-.485-.455-.963-.714-1.489-.251-.509-.5-1.019-.769-1.521.493-.2,1.043-.455,1.624-.721-.33-.669-.659-1.3-.95-1.847,1.274-.588,2.508-1.137,3.773-1.781.172.39.5,1.1.855,1.895.645-.3,1.3-.62,1.966-.95.462-.227.519-.513.291-.975a3.759,3.759,0,0,0-.764-1.108c.948-.487,2.963-1.619,3.927-2.233a6.506,6.506,0,0,1,1.276,1.825c1.185,2.4.345,3.67-1.758,4.706-.907.448-2.15,1.02-3.543,1.687l.259.565c-1.194.589-2.508,1.216-3.607,1.8Z" transform="translate(-19.346 -298.316)"/>
    <path id="Path_57" data-name="Path 57" class="cls-1" d="M25.375,385.827c2.3-.729,3.659-.208,4.205,1.519s-.264,2.933-2.566,3.661c-2.286.723-3.592.187-4.138-1.54s.213-2.917,2.5-3.64" transform="translate(-16.25 -275.894)"/>
    <path id="Path_58" data-name="Path 58" class="cls-1" d="M13.319,345.255c-1.839.305-4.115.687-7.193,1.228-.577.1-.794.3-.724.7.077.437.465.694,1.514.509,4.144-.728,5.333-.937,6.62-1.2l.606,3.445c-1.717.284-3.36.572-5.931,1.024-3.112.547-5.578.98-7.6,1.354L0,348.857c.877-.136,1.527-.232,2.332-.374.507-.089.982-.155,1.51-.229l0-.125a2.383,2.383,0,0,1-2.166-2.071c-.236-1.346.278-2.32,2.1-2.639,2.448-.43,3.727-.637,5.3-.914,1.4-.246,2.519-.442,3.649-.677Z" transform="translate(0 -244.634)"/>
    <path id="Path_59" data-name="Path 59" class="cls-1" d="M14.56,316.042c.172,3.013-1.3,4.253-5.949,4.518-4.556.259-5.711-.991-5.874-3.845s.84-4.3,5.4-4.557c4.645-.264,6.255.853,6.427,3.884m-8.882.488c.03.532.4.777,2.775.642,2.429-.138,2.856-.429,2.827-.961-.032-.549-.489-.772-2.917-.634-2.376.135-2.715.421-2.685.953" transform="translate(-1.947 -223.373)"/>
    <path id="Path_60" data-name="Path 60" class="cls-1" d="M14.549,284.295c-.172,3.014-1.78,4.078-6.425,3.813-4.556-.26-5.562-1.633-5.4-4.487s1.323-4.175,5.879-3.915c4.645.265,6.118,1.558,5.946,4.589m-8.881-.524c-.03.532.309.818,2.685.953,2.428.138,2.887-.1,2.917-.634.031-.549-.4-.823-2.827-.961-2.375-.136-2.745.11-2.775.642" transform="translate(-1.939 -200.152)"/>
    <path id="Path_61" data-name="Path 61" class="cls-1" d="M7.1,250.215A2.324,2.324,0,0,1,5.841,247.8c.294-1.7,1.777-2.251,6.2-1.485,4.461.772,5.639,1.985,5.36,3.594a2.041,2.041,0,0,1-2,1.888l.009.055c.458.061.913.14,1.438.231.735.127,1.4.242,2.12.349l-.6,3.464C16.414,255.521,14,255.1,11.1,254.6c-2.572-.445-4.391-.76-6.126-1.042l.6-3.446c.35.061.662.133,1.029.2l.437.076Zm6.574,1.372a1.583,1.583,0,0,0,.208-.577c.109-.63-.335-.977-2.644-1.376-2.082-.361-2.488-.2-2.568.258-.085.49.316.883,1.488,1.086Z" transform="translate(-3.557 -176.036)"/>
    <path id="Path_62" data-name="Path 62" class="cls-1" d="M8.337,209.687c1.628.944,4.292,2.138,4.741,3.752,1.248-1.279,3.618-.653,6.285-.531l-.886,3c-.105.357-.26.441-.643.421a25.456,25.456,0,0,0-4.345-.081l-.015.051c1.72.508,3.082.911,4.505,1.294l-1,3.371c-2.034-.638-4.695-1.406-7.317-2.181-2.111-.624-4.064-1.219-5.862-1.714l1-3.371c1.891.614,3.855,1.176,6.681,2.011l.187.055.015-.051c-.552-.386-1.1-.771-1.65-1.117a25.5,25.5,0,0,0-2.673-1.6Z" transform="translate(-2.723 -150.066)"/>
    <path id="Path_63" data-name="Path 63" class="cls-1" d="M24.824,191.168c-1.57-1-1.884-1.927-1.522-2.777a3.383,3.383,0,0,1,.282-.556c1.514.706,2.92,1.35,4.649,2.047a2.035,2.035,0,0,0-.345.57c-.252.626,0,1,1.005,1.4,1.416.571,3.053,1.212,4.749,1.8l-1.394,3.458c-1.469-.63-3.1-1.287-5.4-2.217-2.223-.9-3.738-1.507-5.249-2.078l1.009-2.5c.728.332,1.4.62,2.173.972Z" transform="translate(-15.455 -134.427)"/>
    <path id="Path_64" data-name="Path 64" class="cls-1" d="M37.955,167.576c-.584-.3-.973-.32-1.193.106s-.032.841,1.177,1.363c-.194.3-.421.742-.657,1.2-.283.553-.544,1.1-.674,1.43-3.026-1.415-3.748-2.923-2.409-5.529,1.184-2.306,2.635-2.838,4.673-1.791,1.706.876,2.827,1.492,4.3,2.246a20.6,20.6,0,0,0,3.169,1.409l-1.225,2.385c-.268.521-.388.6-1.02.275-.237-.122-.529-.292-.821-.462l-.032.063a2.086,2.086,0,0,1,.588,2.858c-.657,1.279-1.535,1.706-3.936.473-2.243-1.152-2.459-2.441-1.372-4.557a4.781,4.781,0,0,1,.557-.891ZM40.3,168.8a2.2,2.2,0,0,0-.25.41c-.292.568-.216.887.637,1.325.963.5,1.226.45,1.437.04.235-.458-.054-.866-1.523-1.621Z" transform="translate(-24.014 -117.254)"/>
    <path id="Path_65" data-name="Path 65" class="cls-1" d="M54.232,139.67c-.918-.607-1.273-.65-1.537-.25-.293.444-.14.823,2.053,2.272,2.162,1.43,2.6,1.482,2.918.993.265-.4-.052-.822-.778-1.3-.252-.166-.558-.347-.839-.534.254-.321.524-.7.827-1.156.333-.5.6-.968.886-1.436.335.2.632.4.913.582,2.725,1.8,3.075,3.332,1.519,5.687-1.636,2.473-3.329,2.588-7.313-.046-3.791-2.507-4.132-4.116-2.546-6.515,1.538-2.325,2.831-2.768,5.467-1.025.311.206.642.446,1.017.715-.23.316-.568.795-.93,1.343-.323.489-.631.987-.783,1.249Z" transform="translate(-35.384 -97.244)"/>
    <path id="Path_66" data-name="Path 66" class="cls-1" d="M71.752,117.05c-1.417-1.212-3.174-2.708-5.569-4.716-.449-.376-.742-.414-1-.1-.285.34-.232.8.584,1.486,3.224,2.7,4.15,3.479,5.179,4.3l-2.248,2.68c-1.322-1.132-2.6-2.2-4.6-3.881-2.422-2.031-4.34-3.639-5.93-4.949l2.258-2.694c.669.584,1.161,1.02,1.786,1.545.395.331.751.652,1.147,1.008l.094-.084a2.383,2.383,0,0,1,.191-2.991c.878-1.048,1.955-1.281,3.369-.094,1.9,1.6,2.886,2.444,4.111,3.47,1.088.913,1.96,1.643,2.867,2.357Z" transform="translate(-41.626 -77.121)"/>
    <path id="Path_67" data-name="Path 67" class="cls-1" d="M85.192,90.34l-1.227-1.259c.394-.359.776-.731,1.2-1.14s.813-.793,1.208-1.2c.346.406.755.851,1.188,1.321.534-.52,1.031-1.028,1.463-1.475.954,1.03,1.857,2.033,2.861,3.038-.318.285-.89.817-1.538,1.4.483.521.991,1.043,1.511,1.577.359.369.649.335,1.018-.024a3.775,3.775,0,0,0,.817-1.069c.756.751,2.455,2.317,3.338,3.045a6.518,6.518,0,0,1-1.341,1.778c-1.92,1.871-3.384,1.462-5.019-.216-.706-.725-1.635-1.729-2.7-2.848l-.457.421c-.929-.954-1.933-2.009-2.825-2.875Z" transform="translate(-60.091 -61.967)"/>
    <path id="Path_68" data-name="Path 68" class="cls-1" d="M134.907,69.582c1.407,1.962,1.334,3.413-.138,4.469s-2.87.66-4.277-1.3-1.292-3.356.179-4.411,2.839-.7,4.235,1.245" transform="translate(-92.681 -48.488)"/>
  </g>
</svg>
