<svg xmlns="http://www.w3.org/2000/svg" width="25.65" height="35.205" viewBox="0 0 25.65 35.205">
  <defs>
    <style>
      .cls-1, .cls-2 {
        fill: #ee274a;
      }

      .cls-1 {
        stroke: #ee274a;
      }

      .cls-2 {
        stroke: #ef2749;
      }
    </style>
  </defs>
  <g id="Group_35" data-name="Group 35" transform="translate(0.574 0.5)">
    <g id="Group_36" data-name="Group 36" transform="translate(0 0)">
      <path id="Path_90" data-name="Path 90" class="cls-1" d="M5.41,6a10.171,10.171,0,0,0-.57,9.514L13.316,33.63a.529.529,0,0,0,.958,0L22.75,15.512A10.166,10.166,0,0,0,22.179,6a9.635,9.635,0,0,0-7.841-4.716,10.844,10.844,0,0,0-1.087,0A9.635,9.635,0,0,0,5.41,6M13.3,2.342c.162-.008.326-.012.491-.012s.328,0,.49.012a8.6,8.6,0,0,1,6.99,4.21,9.107,9.107,0,0,1,.515,8.517l-8,17.089L5.8,15.072a9.109,9.109,0,0,1,.512-8.52,8.6,8.6,0,0,1,6.99-4.21" transform="translate(0.832 0.27)"/>
      <path id="Path_91" data-name="Path 91" class="cls-1" d="M13.02,15.863A5.452,5.452,0,1,0,7.568,10.41a5.459,5.459,0,0,0,5.452,5.452m0-9.848a4.395,4.395,0,1,1-4.394,4.4,4.4,4.4,0,0,1,4.394-4.4" transform="translate(1.605 1.052)"/>
      <path id="Path_92" data-name="Path 92" class="cls-2" d="M8.877,0a9.667,9.667,0,0,0-7.51,4.881A10.2,10.2,0,0,0,.914,14.2L9.388,32.314a.529.529,0,1,0,.959-.447L1.874,13.757a9.132,9.132,0,0,1,.408-8.344A8.619,8.619,0,0,1,8.977,1.056.529.529,0,0,0,8.877,0" transform="translate(0 0)"/>
    </g>
  </g>
</svg>
