<svg xmlns="http://www.w3.org/2000/svg" width="35.602" height="35.604" viewBox="0 0 35.602 35.604">
  <defs>
    <style>
      .cls-1 {
        fill: #ee274a;
        stroke: #ee2949;
      }
    </style>
  </defs>
  <g id="Group_37" data-name="Group 37" transform="translate(0.5 0.502)">
    <g id="Group_31" data-name="Group 31" transform="translate(0 0)">
      <path id="Path_88" data-name="Path 88" class="cls-1" d="M21.734,15.555h-8.94V4.812a.566.566,0,0,0-1.131,0V16.12a.567.567,0,0,0,.565.566h9.506a.566.566,0,0,0,0-1.131" transform="translate(4.977 1.812)"/>
      <path id="Path_89" data-name="Path 89" class="cls-1" d="M17.3,0c-.163,0-.322.009-.484.013l-.011,0-.014,0A17.319,17.319,0,0,0,0,17.3c0,.2.009.4.016.6A.445.445,0,0,0,0,17.982a.573.573,0,0,0,.02.1A17.3,17.3,0,1,0,17.3,0m.077,33.355-1.144-.037A16.075,16.075,0,0,1,1.3,18.546l-.05-1.127c0-.04,0-.078,0-.117A16.073,16.073,0,0,1,16.24,1.284l1.131-.037A16.074,16.074,0,0,1,33.358,17.3c0,.036,0,.071,0,.108L33.3,18.556a16.072,16.072,0,0,1-15.925,14.8"/>
    </g>
  </g>
</svg>
